<svg t="1752581652918" class="icon" viewBox="0 0 1024 1024" version="1.1" xmlns="http://www.w3.org/2000/svg" p-id="18251" width="128" height="128">
    <rect width="100%" height="100%" fill="#99C13B" rx="300" />
    <path d="M291.84 399.36c-20.48 0-35.84 15.36-35.84 35.84v153.6c0 25.6 15.36 40.96 35.84 40.96 20.48 0 35.84-15.36 35.84-35.84v-153.6c5.12-25.6-15.36-40.96-35.84-40.96z m51.2 250.88c0 20.48 15.36 40.96 40.96 40.96H409.6V768c0 20.48 15.36 35.84 35.84 35.84 20.48 0 35.84-15.36 35.84-35.84v-81.92h51.2V768c0 20.48 15.36 35.84 35.84 35.84 20.48 0 35.84-15.36 35.84-35.84v-81.92h25.6c20.48 0 40.96-15.36 40.96-40.96V404.48H343.04v245.76z m250.88-389.12l25.6-46.08v-5.12H614.4l-30.72 46.08c-20.48-10.24-46.08-15.36-71.68-15.36s-51.2 5.12-71.68 15.36l-25.6-46.08C409.6 204.8 409.6 204.8 404.48 204.8c0 0-5.12 5.12 0 5.12l25.6 46.08c-51.2 25.6-87.04 76.8-87.04 133.12h337.92c0-51.2-35.84-102.4-87.04-128zM435.2 332.8c-10.24 0-15.36-5.12-15.36-15.36s10.24-10.24 15.36-10.24 15.36 5.12 15.36 15.36c0 5.12-5.12 10.24-15.36 10.24z m153.6 0c-10.24 0-15.36-5.12-15.36-15.36s5.12-10.24 15.36-10.24c10.24 0 15.36 5.12 15.36 15.36 0 5.12-10.24 10.24-15.36 10.24z m143.36 66.56c-20.48 0-35.84 15.36-35.84 35.84v153.6c0 20.48 15.36 35.84 35.84 35.84 20.48 5.12 35.84-10.24 35.84-30.72v-153.6c0-25.6-15.36-40.96-35.84-40.96z" fill="#FFFFFF" p-id="18253"></path>
</svg>
