<svg version="1.1" id="Layer_1"
     xmlns="http://www.w3.org/2000/svg"
     xmlns:xlink="http://www.w3.org/1999/xlink"
     viewBox="0 0 500 500"
     preserveAspectRatio="xMidYMid meet"
     xml:space="preserve"
>
  <!-- 绿色叶子（保留原始填充） -->
  <path fill="#2B9F0D" opacity="1.000000" stroke="none"
    d="
M268.000000,501.000000 
	C256.979095,501.000000 245.958206,501.000000 234.468979,500.531342 
	C234.000641,480.475311 234.000641,460.887939 234.000641,441.964508 
	C159.126236,431.489624 104.682541,394.073456 74.895981,325.001038 
	C52.001328,271.910278 55.052261,218.464478 79.979179,164.947327 
	C82.720573,171.586761 84.585144,177.201324 87.265709,182.394714 
	C96.363457,200.020935 109.479897,214.298004 124.470222,227.156631 
	C143.968719,243.882324 165.805984,257.122101 187.410919,270.742126 
	C209.937042,284.942871 232.424149,299.194641 250.572235,319.094849 
	C259.819794,329.235291 267.354279,340.468018 270.045502,354.165649 
	C271.829041,363.243500 272.761017,372.488647 274.012604,381.228912 
	C279.710724,354.460388 274.626343,329.591248 256.751556,306.981842 
	C258.529449,305.493622 259.973358,304.081848 261.609711,302.947632 
	C274.202118,294.219208 286.642975,285.253510 299.490143,276.915070 
	C324.788879,260.494934 351.777954,246.730133 375.339233,227.565155 
	C393.327515,212.933319 408.582306,196.306961 418.020630,174.865601 
	C419.295227,171.970047 420.377594,168.989883 421.769684,165.494705 
	C444.381989,209.125092 452.966553,272.392059 423.837891,332.540405 
	C392.534882,397.178619 339.411926,432.455078 268.000000,441.847351 
	C268.000000,461.420898 268.000000,481.210449 268.000000,501.000000 
M212.271606,404.612427 
	C213.249619,404.994812 214.227631,405.377197 215.205627,405.759583 
	C215.296234,405.494415 215.386841,405.229248 215.477432,404.964050 
	C214.529343,404.437805 213.581253,403.911530 212.208344,402.848999 
	C199.253784,393.525909 186.099014,384.466278 173.396622,374.811401 
	C158.370285,363.390167 145.191788,350.044495 132.903992,335.647919 
	C115.955978,315.791443 102.261368,293.949982 90.404922,270.833923 
	C89.076172,268.243317 87.940811,265.553528 86.715767,262.909729 
	C86.289131,263.087341 85.862495,263.264984 85.435852,263.442627 
	C87.969261,270.872620 90.353233,278.357605 93.063164,285.722626 
	C102.439598,311.205872 117.084160,333.403778 135.885864,352.840790 
	C151.325836,368.802460 168.889236,382.139038 188.379410,392.791870 
	C196.008865,396.961884 204.070007,400.342133 212.271606,404.612427 
M384.001984,315.496429 
	C370.708466,334.882843 354.730133,351.868164 336.972382,367.262177 
	C367.597626,358.998871 415.209930,289.322235 413.707886,256.572815 
	C409.624329,266.170807 405.799042,276.503540 400.900085,286.299347 
	C395.984283,296.128876 389.998077,305.423004 384.001984,315.496429 
M333.550476,370.779602 
	C334.200134,370.330353 334.849792,369.881104 335.499420,369.431854 
	C335.191986,369.165833 334.884552,368.899811 334.577118,368.633789 
	C334.032318,369.355042 333.487488,370.076294 333.550476,370.779602 
z"/>

  <!-- 原来会变成黑的复杂路径：已改为透明 fill（去掉背景黑） -->
  <path fill="none" opacity="1.000000" stroke="none"
    d="
M268.463196,501.000000 
	C268.000000,481.210449 268.000000,461.420898 268.000000,441.847351 
	C339.411926,432.455078 392.534882,397.178619 423.837891,332.540405 
	C452.966553,272.392059 444.381989,209.125092 421.769684,165.494705 
	C420.377594,168.989883 419.295227,171.970047 418.020630,174.865601 
	C408.582306,196.306961 393.327515,212.933319 375.339233,227.565155 
	C351.777954,246.730133 324.788879,260.494934 299.490143,276.915070 
	C286.642975,285.253510 274.202118,294.219208 261.609711,302.947632 
	C259.973358,304.081848 258.529449,305.493622 256.751556,306.981842 
	C274.626343,329.591248 279.710724,354.460388 274.012604,381.228912 
	C272.761017,372.488647 271.829041,363.243500 270.045502,354.165649 
	C267.354279,340.468018 259.819794,329.235291 250.572235,319.094849 
	C232.424149,299.194641 209.937042,284.942871 187.410919,270.742126 
	C165.805984,257.122101 143.968719,243.882324 124.470222,227.156631 
	C109.479897,214.298004 96.363457,200.020935 87.265709,182.394714 
	C84.585144,177.201324 82.720573,171.586761 79.979179,164.947327 
	C55.052261,218.464478 52.001328,271.910278 74.895981,325.001038 
	C104.682541,394.073456 159.126236,431.489624 234.000641,441.964508 
	C234.000641,460.887939 234.000641,480.475311 234.000320,500.531342 
	C229.975449,501.000000 225.950912,501.000000 221.147369,500.605042 
	C220.569534,489.266998 220.837128,478.323944 220.833496,467.380951 
	C220.833237,466.588257 218.939758,465.251892 217.792816,465.084534 
	C196.810104,462.022827 176.719543,455.826569 157.930038,446.209503 
	C144.886292,439.533264 131.945724,432.173859 120.331886,423.319092 
	C108.381317,414.207642 98.060020,402.949768 87.114090,392.538269 
	C84.987167,390.515167 83.117096,388.173950 81.382629,385.794250 
	C70.391701,370.714447 60.337868,355.141632 52.863361,337.885956 
	C43.024887,315.172821 36.752548,291.554047 35.238831,266.998199 
	C34.054890,247.792084 34.784409,228.524933 38.844654,209.418793 
	C44.566036,182.495911 54.271599,157.330475 69.278503,134.299667 
	C79.860634,118.059486 92.185448,103.343460 106.847786,90.423630 
	C120.759087,78.165573 135.722473,67.658142 152.033401,59.054600 
	C168.995255,50.107723 186.934784,43.528809 205.813187,40.131561 
	C218.801636,37.794239 231.971725,36.205399 245.130554,35.173790 
	C252.981583,34.558296 261.020905,35.203819 268.880585,36.108196 
	C280.514771,37.446873 292.316925,38.547928 303.597931,41.480118 
	C327.490234,47.690285 350.097778,57.192745 370.646790,71.215103 
	C387.970795,83.036774 403.814423,96.551331 417.101624,112.762718 
	C430.510498,129.122574 441.551453,147.048843 449.933044,166.555130 
	C459.434082,188.666672 465.224701,211.797852 466.768921,235.695999 
	C467.883331,252.942474 467.227295,270.276276 464.172485,287.516602 
	C460.673309,307.264740 454.730713,326.137939 446.265747,344.190094 
	C434.523651,369.230774 417.982513,390.786896 397.859802,409.776886 
	C383.295959,423.520905 367.016327,434.735046 349.341309,443.812897 
	C327.952911,454.798004 305.337158,462.408417 281.000000,465.288544 
	C281.000000,477.319763 281.000000,489.159882 281.000000,501.000000 
	C276.975464,501.000000 272.950897,501.000000 268.463196,501.000000 
M221.533539,112.999863 
	C170.930588,124.546913 137.248718,155.521606 117.717766,203.187775 
	C123.627213,208.427521 129.121109,213.871399 135.195999,218.562973 
	C146.898544,227.600754 158.540421,236.810059 170.907913,244.873947 
	C194.533585,260.278503 219.190186,274.117035 240.899368,292.361511 
	C247.898895,298.243927 247.787598,297.724976 254.755417,291.914917 
	C261.606445,286.202271 268.836334,280.852264 276.347748,276.042419 
	C292.023804,266.004395 308.130280,256.638428 323.804565,246.597702 
	C337.717010,237.685623 351.474487,228.501434 364.924896,218.910767 
	C371.805542,214.004562 377.863586,207.944656 385.053986,201.751068 
	C378.614746,190.771866 372.758118,179.780518 365.956360,169.408997 
	C353.770081,150.826843 337.176666,136.835129 317.716278,126.378944 
	C293.688599,113.468712 267.830872,108.384293 240.685272,110.091255 
	C234.554886,110.476738 228.495728,111.995331 221.533539,112.999863 
z"/>

  <!-- 黄色大块（保留原始填充） -->
  <path fill="#FFCB29" opacity="1.000000" stroke="none"
    d="
M281.333313,501.000000 
	C281.000000,489.159882 281.000000,477.319763 281.000000,465.288544 
	C305.337158,462.408417 327.952911,454.798004 349.341309,443.812897 
	C367.016327,434.735046 383.295959,423.520905 397.859802,409.776886 
	C417.982513,390.786896 434.523651,369.230774 446.265747,344.190094 
	C454.730713,326.137939 460.673309,307.264740 464.172485,287.516602 
	C467.227295,270.276276 467.883331,252.942474 466.768921,235.695999 
	C465.224701,211.797852 459.434082,188.666672 449.933044,166.555130 
	C441.551453,147.048843 430.510498,129.122574 417.101624,112.762718 
	C403.814423,96.551331 387.970795,83.036774 370.646790,71.215103 
	C350.097778,57.192745 327.490234,47.690285 303.597931,41.480118 
	C292.316925,38.547928 280.514771,37.446873 268.880585,36.108196 
	C261.020905,35.203819 252.981583,34.558296 245.130554,35.173790 
	C231.971725,36.205399 218.801636,37.794239 205.813187,40.131561 
	C186.934784,43.528809 168.995255,50.107723 152.033401,59.054600 
	C135.722473,67.658142 120.759087,78.165573 106.847786,90.423630 
	C92.185448,103.343460 79.860634,118.059486 69.278503,134.299667 
	C54.271599,157.330475 44.566036,182.495911 38.844654,209.418793 
	C34.784409,228.524933 34.054890,247.792084 35.238831,266.998199 
	C36.752548,291.554047 43.024887,315.172821 52.863361,337.885956 
	C60.337868,355.141632 70.391701,370.714447 81.382629,385.794250 
	C83.117096,388.173950 84.987167,390.515167 87.114090,392.538269 
	C98.060020,402.949768 108.381317,414.207642 120.331886,423.319092 
	C131.945724,432.173859 144.886292,439.533264 157.930038,446.209503 
	C176.719543,455.826569 196.810104,462.022827 217.792816,465.084534 
	C218.939758,465.251892 220.833237,466.588257 220.833496,467.380951 
	C220.837128,478.323944 220.569534,489.266998 220.684189,500.605042 
	C220.555557,501.000000 220.111099,501.000000 219.673752,500.664856 
	C218.843292,499.889038 218.052399,499.233124 217.161209,499.039917 
	C203.254913,496.025696 189.115524,493.841156 175.466370,489.938690 
	C149.105225,482.401642 124.981766,469.928009 102.719604,453.940308 
	C82.268181,439.253052 64.445511,421.726074 49.388981,401.640747 
	C36.752296,384.783478 26.314978,366.496490 18.384361,346.865570 
	C11.206009,329.096893 5.789724,310.857422 2.921944,291.880707 
	C2.815020,291.173157 1.664299,290.623322 0.999999,290.000000 
	C1.000000,264.312439 1.000000,238.624878 1.325915,212.804810 
	C2.113000,210.844315 2.633758,209.029022 3.026318,207.186417 
	C8.081087,183.460159 14.832330,160.363403 25.954527,138.601898 
	C36.447205,118.072113 49.061913,98.993736 64.669090,82.175308 
	C74.827850,71.228142 86.175797,61.227684 97.854927,51.882854 
	C118.334877,35.496208 141.530853,23.792967 166.195969,14.908181 
	C182.731842,8.951685 199.639847,4.785030 217.122650,2.917266 
	C217.808884,2.843955 218.376907,1.664204 219.000000,1.000000 
	C240.020889,1.000000 261.041779,1.000000 282.190704,1.329906 
	C283.151947,2.103890 283.941223,2.797284 284.825287,2.953186 
	C292.982727,4.391729 301.311920,5.140253 309.297638,7.217690 
	C337.613647,14.583941 364.422363,25.411804 388.885101,41.882057 
	C408.474792,55.071404 426.230133,70.144676 441.618835,88.070076 
	C454.170471,102.690674 464.947052,118.550995 473.764618,135.592499 
	C486.858154,160.898010 495.718689,187.674637 499.080811,216.119507 
	C499.162689,216.812286 500.335846,217.376053 501.000000,218.000000 
	C501.000000,240.020889 501.000000,262.041779 500.667755,284.201782 
	C499.558228,287.261627 498.734863,290.171082 498.011658,293.105194 
	C494.806183,306.110413 492.681244,319.501648 488.166779,332.033173 
	C482.935303,346.555023 476.050537,360.544067 469.087341,374.363281 
	C460.395660,391.612915 448.553223,406.829742 435.412445,420.871033 
	C427.315948,429.522278 418.369507,437.453888 409.279175,445.082397 
	C393.574951,458.261108 376.305878,469.073303 357.695282,477.795502 
	C334.498779,488.666992 310.288696,495.856293 284.878571,499.079956 
	C284.182404,499.168243 283.623108,500.335724 283.000000,501.000000 
	C282.555542,501.000000 282.111115,501.000000 281.333313,501.000000 
z"/>

  <!-- 这些原来没有 fill 的小片段也设为透明（去黑），以保留干净的透明背景 -->
  <path fill="none" opacity="1.000000" stroke="none"
    d="M501.000000,217.531342 
	C500.335846,217.376053 499.162689,216.812286 499.080811,216.119507 
	C495.718689,187.674637 486.858154,160.898010 473.764618,135.592499 
	C464.947052,118.550995 454.170471,102.690674 441.618835,88.070076 
	C426.230133,70.144676 408.474792,55.071404 388.885101,41.882057 
	C364.422363,25.411804 337.613647,14.583941 309.297638,7.217690 
	C301.311920,5.140253 292.982727,4.391729 284.825287,2.953186 
	C283.941223,2.797284 283.151947,2.103890 282.659363,1.329906 
	C355.593536,1.000000 428.187042,1.000000 501.000000,1.000000 
	C501.000000,73.020744 501.000000,145.041718 501.000000,217.531342 
z"/>

  <path fill="none" opacity="1.000000" stroke="none"
    d="M283.468658,501.000000 
	C283.623108,500.335724 284.182404,499.168243 284.878571,499.079956 
	C310.288696,495.856293 334.498779,488.666992 357.695282,477.795502 
	C376.305878,469.073303 393.574951,458.261108 409.279175,445.082397 
	C418.369507,437.453888 427.315948,429.522278 435.412445,420.871033 
	C448.553223,406.829742 460.395660,391.612915 469.087341,374.363281 
	C476.050537,360.544067 482.935303,346.555023 488.166779,332.033173 
	C492.681244,319.501648 494.806183,306.110413 498.011658,293.105194 
	C498.734863,290.171082 499.558228,287.261627 500.667755,284.670410 
	C501.000000,356.927368 501.000000,428.854736 501.000000,501.000000 
	C428.645905,501.000000 356.291626,501.000000 283.468658,501.000000 
z"/>

  <path fill="none" opacity="1.000000" stroke="none"
    d="M218.531342,1.000000 
	C218.376907,1.664204 217.808884,2.843955 217.122650,2.917266 
	C199.639847,4.785030 182.731842,8.951685 166.195969,14.908181 
	C141.530853,23.792967 118.334877,35.496208 97.854927,51.882854 
	C86.175797,61.227684 74.827850,71.228142 64.669090,82.175308 
	C49.061913,98.993736 36.447205,118.072113 25.954527,138.601898 
	C14.832330,160.363403 8.081087,183.460159 3.026318,207.186417 
	C2.633758,209.029022 2.113000,210.844315 1.325915,212.336151 
	C1.000000,141.738434 1.000000,71.476875 1.000000,1.000000 
	C73.354088,1.000000 145.708389,1.000000 218.531342,1.000000 
z"/>

  <path fill="none" opacity="1.000000" stroke="none"
    d="M0.999999,290.468658 
	C1.664299,290.623322 2.815020,291.173157 2.921944,291.880707 
	C5.789724,310.857422 11.206009,329.096893 18.384361,346.865570 
	C26.314978,366.496490 36.752296,384.783478 49.388981,401.640747 
	C64.445511,421.726074 82.268181,439.253052 102.719604,453.940308 
	C124.981766,469.928009 149.105225,482.401642 175.466370,489.938690 
	C189.115524,493.841156 203.254913,496.025696 217.161209,499.039917 
	C218.052399,499.233124 218.843292,499.889038 219.340424,500.664856 
	C146.407486,501.000000 73.814987,501.000000 1.000000,501.000000 
	C1.000000,430.979248 1.000000,360.958282 0.999999,290.468658 
z"/>

  <path fill="none" opacity="1.000000" stroke="none"
    d="M211.934525,404.082092 
	C204.070007,400.342133 196.008865,396.961884 188.379410,392.791870 
	C168.889236,382.139038 151.325836,368.802460 135.885864,352.840790 
	C117.084160,333.403778 102.439598,311.205872 93.063164,285.722626 
	C90.353233,278.357605 87.969261,270.872620 85.435852,263.442627 
	C85.862495,263.264984 86.289131,263.087341 86.715767,262.909729 
	C87.940811,265.553528 89.076172,268.243317 90.404922,270.833923 
	C102.261368,293.949982 115.955978,315.791443 132.903992,335.647919 
	C145.191788,350.044495 158.370285,363.390167 173.396622,374.811401 
	C186.099014,384.466278 199.253784,393.525909 212.236511,403.281738 
	C212.264679,403.714478 211.934525,404.082092 211.934525,404.082092 
z"/>

  <path fill="none" opacity="1.000000" stroke="none"
    d="M384.241455,315.224121 
	C389.998077,305.423004 395.984283,296.128876 400.900085,286.299347 
	C405.799042,276.503540 409.624329,266.170807 413.707886,256.572815 
	C415.209930,289.322235 367.597626,358.998871 336.972382,367.262177 
	C354.730133,351.868164 370.708466,334.882843 384.241455,315.224121 
z"/>

  <path fill="none" opacity="1.000000" stroke="none"
    d="M333.246582,370.788574 
	C333.487488,370.076294 334.032318,369.355042 334.577118,368.633789 
	C334.884552,368.899811 335.191986,369.165833 335.499420,369.431854 
	C334.849792,369.881104 334.200134,370.330353 333.246582,370.788574 
z"/>

  <path fill="none" opacity="1.000000" stroke="none"
    d="M212.448914,403.549866 
	C213.581253,403.911530 214.529343,404.437805 215.477432,404.964050 
	C215.386841,405.229248 215.296234,405.494415 215.205627,405.759583 
	C214.227631,405.377197 213.249619,404.994812 212.103058,404.347260 
	C211.934525,404.082092 212.264679,403.714478 212.448914,403.549866 
z"/>

  <!-- 另一个黄色块（保留原始填充，保持太阳顶部形状） -->
  <path fill="#FFCB29" opacity="1.000000" stroke="none"
    d="
M221.968658,112.996094 
	C228.495728,111.995331 234.554886,110.476738 240.685272,110.091255 
	C267.830872,108.384293 293.688599,113.468712 317.716278,126.378944 
	C337.176666,136.835129 353.770081,150.826843 365.956360,169.408997 
	C372.758118,179.780518 378.614746,190.771866 385.053986,201.751068 
	C377.863586,207.944656 371.805542,214.004562 364.924896,218.910767 
	C351.474487,228.501434 337.717010,237.685623 323.804565,246.597702 
	C308.130280,256.638428 292.023804,266.004395 276.347748,276.042419 
	C268.836334,280.852264 261.606445,286.202271 254.755417,291.914917 
	C247.787598,297.724976 247.898895,298.243927 240.899368,292.361511 
	C219.190186,274.117035 194.533585,260.278503 170.907913,244.873947 
	C158.540421,236.810059 146.898544,227.600754 135.195999,218.562973 
	C129.121109,213.871399 123.627213,208.427521 117.717766,203.187775 
	C137.248718,155.521606 170.930588,124.546913 221.968658,112.996094 
z"/>
</svg>
